<?xml version="1.0" standalone="no"?>
<!DOCTYPE svg PUBLIC "-//W3C//DTD SVG 20010904//EN"
 "http://www.w3.org/TR/2001/REC-SVG-20010904/DTD/svg10.dtd">
<svg version="1.0" xmlns="http://www.w3.org/2000/svg" 
 width="297.000000pt" height="296.000000pt" viewBox="0 0 297.000000 296.000000"
 preserveAspectRatio="xMidYMid meet">

<g transform="translate(0.000000,296.000000) scale(0.100000,-0.100000)"
fill="#235aa6" stroke="black" stroke-width="50">
<path d="M192 2780 l-22 -9 2 -718 3 -718 73 -3 72 -3 0 656 0 655 615 0 615
0 0 -845 0 -845 70 0 70 0 0 915 0 915 -702 0 c-387 0 -719 2 -738 5 -19 3
-45 0 -58 -5z"/>
<path d="M1964 2766 c-3 -7 -4 -38 -2 -67 l3 -54 295 -1 c162 0 325 -1 363 -2
l67 -2 -2 -1182 -3 -1183 -1182 -3 -1183 -2 -1 142 c-1 79 -1 172 -1 208 0 36
1 125 1 198 l1 132 420 0 c394 0 422 1 472 20 53 19 116 74 150 130 27 45 41
134 29 191 -22 101 -76 170 -166 211 -46 21 -67 23 -295 28 -278 6 -282 7
-320 86 -40 82 4 178 95 203 26 7 159 11 368 11 l328 0 -3 68 -3 67 -360 0
c-345 0 -362 -1 -406 -21 -66 -31 -115 -78 -146 -142 -22 -46 -27 -69 -27
-128 1 -113 56 -203 157 -256 39 -21 57 -23 294 -28 234 -5 253 -6 279 -26 71
-53 90 -121 52 -193 -43 -83 -26 -81 -575 -81 l-483 0 0 -480 0 -480 1323 2
1322 3 0 1320 0 1320 -428 3 c-356 2 -428 0 -433 -12z"/>
<path fill='#fd3419' d="M2102 1663 l-261 -308 -1 -110 c0 -94 2 -107 14 -95 8 8 47 53 86
100 40 47 76 86 80 88 5 2 82 -85 171 -192 l164 -195 93 0 c50 -1 92 1 92 3 0
3 -95 116 -210 252 -116 136 -209 251 -208 255 2 4 95 116 208 249 113 132
207 245 208 250 2 6 -33 10 -85 10 l-90 0 -261 -307z"/>
</g>
</svg>
